<svg width="220" height="50" viewBox="0 0 220 50" fill="none" xmlns="http://www.w3.org/2000/svg">
<rect width="220" height="50" fill="#F6F8FA"/>
<g clip-path="url(#clip0_10244_23585)">
<path d="M127.416 15.5596H127.942L128.714 17.8547L129.485 15.5596H130V18.273H129.653V16.6676C129.653 16.6676 129.653 16.5206 129.653 16.3962C129.653 16.2719 129.653 16.125 129.653 15.9893L128.893 18.273H128.534L127.763 15.9893V16.0684C127.763 16.1362 127.763 16.238 127.763 16.3737C127.763 16.5093 127.763 16.6111 127.763 16.6676V18.273H127.416V15.5596ZM124.686 15.5596V15.8875H125.593V18.273H125.962V15.8875H126.868V15.5596H124.686ZM31.6107 8.59525C31.6107 6.60543 30.0224 5 28.0537 5C26.085 5 24.4966 6.60543 24.4966 8.59525C24.4966 10.5851 26.085 12.1905 28.0537 12.1905C30.0224 12.1905 31.6107 10.5851 31.6107 8.59525ZM24.5079 16.0006H31.6667V36.1362H24.5079V16.0006ZM45.1566 36.8711H48.0201V29.6919H45C44.0939 29.6919 43.1767 29.3414 42.4832 28.6405C41.0962 27.2386 41.0962 24.9661 42.4832 23.5641C43.1767 22.8632 44.0828 22.5127 45 22.5127H48.0201V15.2657H45.1566C42.4161 15.2657 39.6868 16.3171 37.5951 18.4313C33.4228 22.6484 33.4228 29.4884 37.5951 33.7055C39.6868 35.8197 42.4161 36.8711 45.1566 36.8711ZM54.9777 36.8711H52.1141V29.6919H55.1342C56.0403 29.6919 56.9575 29.3414 57.651 28.6405C59.0381 27.2386 59.0381 24.9661 57.651 23.5641C56.9575 22.8632 56.0515 22.5127 55.1342 22.5127H52.1141V15.2657H54.9777C57.7181 15.2657 60.4475 16.3171 62.5389 18.4313C66.7112 22.6484 66.7112 29.4884 62.5389 33.7055C60.4475 35.8197 57.7181 36.8711 54.9777 36.8711ZM95.1568 36.1362H102.025V25.7009C102.025 19.935 97.4051 15.2657 91.7002 15.2657C89.2615 15.2657 87.0243 16.125 85.2573 17.5608C83.4896 16.1362 81.2531 15.2657 78.8144 15.2657C73.1095 15.2657 68.49 19.935 68.49 25.7009V36.1362H75.3578V25.5653C75.3578 23.7564 76.8011 22.2979 78.5905 22.2979C80.3804 22.2979 81.7449 23.6998 81.8119 25.4522C81.8119 25.4974 81.8119 32.2809 81.8119 36.1362H88.7027C88.7027 32.2809 88.7027 25.4974 88.7027 25.4522C88.7697 23.6998 90.1788 22.2979 91.9241 22.2979C93.6688 22.2979 95.1568 23.7564 95.1568 25.5653V36.1362ZM115.47 22.4788C113.512 22.4788 111.924 24.0842 111.924 26.0628C111.924 28.0413 113.512 29.6467 115.47 29.6467C117.427 29.6467 119.016 28.0413 119.016 26.0628C119.016 24.0842 117.427 22.4788 115.47 22.4788ZM115.47 36.8372C109.575 36.8372 104.799 32.0096 104.799 26.0515C104.799 20.0933 109.575 15.2657 115.47 15.2657C121.365 15.2657 126.141 20.0933 126.141 26.0515C126.141 32.0096 121.365 36.8372 115.47 36.8372ZM14.2282 26.0628C14.2282 28.0413 12.6398 29.658 10.6823 29.658C8.72482 29.658 7.13648 28.0526 7.13648 26.0628C7.13648 24.0729 8.72482 22.4675 10.6823 22.4675C12.6398 22.4675 14.2282 24.0729 14.2282 26.0628ZM21.3647 26.0628C21.3647 20.1046 16.5772 15.2657 10.6823 15.2657C4.78747 15.2657 0 20.0933 0 26.0515V45L7.12525 40.5455V36.2154C8.24384 36.6111 9.42953 36.8372 10.6823 36.8372C16.5772 36.8372 21.3647 31.9983 21.3647 26.0401" fill="black"/>
<path d="M28.0343 12.1473C29.9868 12.1473 31.5696 10.5473 31.5696 8.57367C31.5696 6.59999 29.9868 5 28.0343 5C26.0818 5 24.499 6.59999 24.499 8.57367C24.499 10.5473 26.0818 12.1473 28.0343 12.1473Z" fill="#FD6B08"/>
</g>
<defs>
<clipPath id="clip0_10244_23585">
<rect width="130" height="40" fill="white" transform="translate(0 5)"/>
</clipPath>
</defs>
</svg>
