<svg width="220" height="50" viewBox="0 0 220 50" fill="none" xmlns="http://www.w3.org/2000/svg">
<rect width="220" height="50" fill="#F6F8FA"/>
<path d="M37 5H13C8.58172 5 5 8.58172 5 13V37C5 41.4183 8.58172 45 13 45H37C41.4183 45 45 41.4183 45 37V13C45 8.58172 41.4183 5 37 5Z" fill="url(#paint0_linear_21802_5579)"/>
<mask id="mask0_21802_5579" style="mask-type:luminance" maskUnits="userSpaceOnUse" x="13" y="13" width="24" height="25">
<path d="M36.9454 13.6334H13.5645V37.1242H36.9454V13.6334Z" fill="white"/>
</mask>
<g mask="url(#mask0_21802_5579)">
<path fill-rule="evenodd" clip-rule="evenodd" d="M33.9785 25.2912C33.9785 30.1806 30.0334 34.1441 25.167 34.1441C20.3005 34.1441 16.3555 30.1806 16.3555 25.2912C16.3555 20.4019 20.3005 16.4384 25.167 16.4384C30.0334 16.4384 33.9785 20.4019 33.9785 25.2912ZM25.167 32.0405C28.877 32.0405 31.8846 29.0187 31.8846 25.2912C31.8846 21.5637 28.877 18.542 25.167 18.542C21.4569 18.542 18.4493 21.5637 18.4493 25.2912C18.4493 29.0187 21.4569 32.0405 25.167 32.0405Z" fill="white"/>
<path fill-rule="evenodd" clip-rule="evenodd" d="M22.3223 26.2754C22.3654 26.2597 22.4131 26.2821 22.4299 26.325C22.8617 27.4214 23.9262 28.1944 25.1678 28.1944C26.4095 28.1944 27.4739 27.4214 27.9057 26.325C27.9226 26.2821 27.9702 26.2597 28.0134 26.2754L29.8251 26.9364C29.8683 26.9522 29.8906 27.0003 29.8742 27.0433C29.151 28.945 27.318 30.2981 25.1678 30.2981C23.0177 30.2981 21.1847 28.945 20.4615 27.0433C20.445 27.0003 20.4674 26.9522 20.5105 26.9364L22.3223 26.2754Z" fill="white"/>
<path fill-rule="evenodd" clip-rule="evenodd" d="M34.8517 34.3192V30.8967C34.8517 30.8506 34.889 30.8131 34.9349 30.8131H36.8624C36.9083 30.8131 36.9455 30.8506 36.9455 30.8967V34.3192C36.9455 35.8683 35.6957 37.1241 34.1538 37.1241H30.7472C30.7013 37.1241 30.6641 37.0867 30.6641 37.0406V35.104C30.6641 35.0579 30.7013 35.0204 30.7472 35.0204H34.1538C34.5393 35.0204 34.8517 34.7065 34.8517 34.3192Z" fill="white"/>
<path fill-rule="evenodd" clip-rule="evenodd" d="M15.6583 16.4383V19.8608C15.6583 19.9069 15.621 19.9444 15.5751 19.9444H13.6475C13.6016 19.9444 13.5645 19.9069 13.5645 19.8608V16.4383C13.5645 14.8892 14.8143 13.6334 16.3562 13.6334H19.7627C19.8086 13.6334 19.8459 13.6708 19.8459 13.7169V15.6535C19.8459 15.6996 19.8086 15.7371 19.7627 15.7371H16.3562C15.9707 15.7371 15.6583 16.051 15.6583 16.4383Z" fill="white"/>
</g>
<path d="M61.0517 35.7477L56.5967 27.9533H54.1742V35.7477H51V16.2617H57.6826C59.1676 16.2617 60.4206 16.5234 61.4415 17.0467C62.4811 17.5701 63.2514 18.271 63.7526 19.1495C64.2723 20.0281 64.5322 21.0094 64.5322 22.0935C64.5322 23.3645 64.1609 24.5233 63.4185 25.5701C62.6945 26.5981 61.5714 27.299 60.0493 27.6729L64.8385 35.7477H61.0517ZM54.1742 25.4019H57.6826C58.8706 25.4019 59.7616 25.1028 60.3556 24.5047C60.9682 23.9065 61.2745 23.1028 61.2745 22.0935C61.2745 21.0841 60.9775 20.2991 60.3835 19.7383C59.7894 19.1589 58.8892 18.8692 57.6826 18.8692H54.1742V25.4019ZM82.0973 27.6449C82.0973 28.2243 82.0601 28.7477 81.9859 29.215H70.2636C70.3563 30.4486 70.8111 31.4393 71.6279 32.1869C72.4446 32.9346 73.447 33.3084 74.6351 33.3084C76.3428 33.3084 77.5494 32.5888 78.2548 31.1495H81.6796C81.2155 32.5701 80.371 33.7383 79.1458 34.6542C77.9392 35.5514 76.4356 36 74.6351 36C73.1686 36 71.8507 35.6729 70.6812 35.0187C69.5303 34.3458 68.6208 33.4112 67.9525 32.215C67.3028 31 66.978 29.5981 66.978 28.0093C66.978 26.4206 67.2935 25.028 67.9247 23.8318C68.5743 22.6168 69.4746 21.6823 70.6255 21.028C71.795 20.3738 73.1315 20.0467 74.6351 20.0467C76.083 20.0467 77.373 20.3645 78.5054 21C79.6377 21.6355 80.5194 22.5327 81.1506 23.6916C81.7817 24.8317 82.0973 26.1495 82.0973 27.6449ZM78.7838 26.6355C78.7652 25.4579 78.3476 24.514 77.5309 23.8037C76.7141 23.0934 75.7024 22.7383 74.4959 22.7383C73.4006 22.7383 72.4632 23.0934 71.6836 23.8037C70.904 24.4953 70.4399 25.4393 70.2914 26.6355H78.7838ZM83.6062 27.9533C83.6062 26.4018 83.9212 25.028 84.5529 23.8318C85.2021 22.6355 86.0748 21.7103 87.1702 21.0561C88.284 20.3832 89.5091 20.0467 90.8457 20.0467C92.0517 20.0467 93.101 20.2897 93.992 20.7757C94.9014 21.243 95.6253 21.8317 96.1639 22.5421V20.2991H99.3659V35.7477H96.1639V33.4486C95.6253 34.1776 94.8918 34.785 93.9642 35.271C93.0358 35.757 91.9777 36 90.79 36C89.4718 36 88.2649 35.6636 87.1702 34.9907C86.0748 34.2991 85.2021 33.3458 84.5529 32.1308C83.9212 30.8972 83.6062 29.5047 83.6062 27.9533ZM96.1639 28.0093C96.1639 26.9439 95.9411 26.0187 95.4956 25.2336C95.0684 24.4486 94.502 23.8504 93.7971 23.4393C93.0915 23.0281 92.3301 22.8224 91.5139 22.8224C90.6969 22.8224 89.9356 23.0281 89.2307 23.4393C88.5251 23.8318 87.9499 24.4206 87.5044 25.2056C87.0772 25.972 86.864 26.8879 86.864 27.9533C86.864 29.0187 87.0772 29.9533 87.5044 30.757C87.9499 31.5607 88.5251 32.1775 89.2307 32.6075C89.9547 33.0187 90.7152 33.2243 91.5139 33.2243C92.3301 33.2243 93.0915 33.0187 93.7971 32.6075C94.502 32.1963 95.0684 31.5981 95.4956 30.8131C95.9411 30.0094 96.1639 29.0748 96.1639 28.0093ZM101.92 27.9533C101.92 26.4018 102.235 25.028 102.867 23.8318C103.516 22.6355 104.389 21.7103 105.484 21.0561C106.598 20.3832 107.832 20.0467 109.188 20.0467C110.19 20.0467 111.173 20.271 112.139 20.7196C113.123 21.1496 113.902 21.729 114.478 22.4579V15H117.68V35.7477H114.478V33.4206C113.958 34.1682 113.234 34.785 112.306 35.271C111.396 35.757 110.348 36 109.16 36C107.823 36 106.598 35.6636 105.484 34.9907C104.389 34.2991 103.516 33.3458 102.867 32.1308C102.235 30.8972 101.92 29.5047 101.92 27.9533ZM114.478 28.0093C114.478 26.9439 114.255 26.0187 113.81 25.2336C113.383 24.4486 112.816 23.8504 112.111 23.4393C111.406 23.0281 110.644 22.8224 109.828 22.8224C109.011 22.8224 108.25 23.0281 107.545 23.4393C106.839 23.8318 106.264 24.4206 105.819 25.2056C105.391 25.972 105.178 26.8879 105.178 27.9533C105.178 29.0187 105.391 29.9533 105.819 30.757C106.264 31.5607 106.839 32.1775 107.545 32.6075C108.269 33.0187 109.029 33.2243 109.828 33.2243C110.644 33.2243 111.406 33.0187 112.111 32.6075C112.816 32.1963 113.383 31.5981 113.81 30.8131C114.255 30.0094 114.478 29.0748 114.478 28.0093ZM139.635 31.7664H131.532L130.14 35.7477H126.827L133.76 16.2336H137.435L144.368 35.7477H141.027L139.635 31.7664ZM138.744 29.1589L135.597 20.1028L132.423 29.1589H138.744ZM150 16.2617V35.7477H146.826V16.2617H150Z" fill="#282828"/>
<defs>
<linearGradient id="paint0_linear_21802_5579" x1="15.1266" y1="36.0126" x2="38.9241" y2="14.8734" gradientUnits="userSpaceOnUse">
<stop stop-color="#4361EE"/>
<stop offset="1" stop-color="#7B61FF"/>
</linearGradient>
</defs>
</svg>
